<?xml version="1.0"?>
<svg xmlns="http://www.w3.org/2000/svg" height="512px" viewBox="-84 0 471 472" width="512px" class=""><g><path d="m285.195312 86.671875 7.511719-13.023437c4.34375-7.582032 5.523438-16.570313 3.28125-25.015626-2.253906-8.449218-7.789062-15.652343-15.375-20l-12.175781-7.03125c-15.777344-9.097656-35.941406-3.683593-45.035156 12.09375l-7.511719 13.015626 34.65625 20zm0 0" data-original="#000000" class="active-path" data-old_color="#000000" fill="#351C4D"/><path d="m253.378906 253.023438-165.535156-95.421876-20.054688 39.703126c-27.058593 53.628906-48.070312 110.101562-62.648437 168.375l-4.640625 18.59375 100.425781 57.917968 13.773438-13.390625c43.140625-41.792969 81.496093-88.253906 114.359375-138.527343zm-208.503906 89.472656-15.589844-3.566406c2.085938-9.144532 4.398438-18.34375 6.878906-27.335938l15.425782 4.261719c-2.394532 8.753906-4.640625 17.746093-6.714844 26.640625zm41.082031-113.328125c-11.15625 23.296875-20.835937 47.273437-28.984375 71.785156l-15.199218-5.050781c8.371093-25.125 18.300781-49.707032 29.734374-73.597656l14.914063-31.105469 14.398437 6.914062zm0 0" data-original="#000000" class="active-path" data-old_color="#000000" fill="#351C4D"/><path d="m284.683594 215.671875-180.183594-103.910156-15.984375 27.71875 182.265625 105.105469 15.984375-27.722657-2.066406-1.183593zm0 0" data-original="#000000" class="active-path" data-old_color="#000000" fill="#351C4D"/><path d="m295.019531 125.257812-12.726562-21.785156-79.488281-45.871094-25.226563-.105468h-.207031c-20.007813.019531-38.496094 10.6875-48.527344 28l-9.414062 16.34375 166.316406 95.921875 9.417968-16.328125c9.992188-17.410156 9.933594-38.824219-.144531-56.175782zm0 0" data-original="#000000" class="active-path" data-old_color="#000000" fill="#351C4D"/><path d="m66.085938 72h16c0-17.671875 14.324218-32 32-32v-16c-26.5.027344-47.976563 21.5-48 48zm0 0" data-original="#000000" class="active-path" data-old_color="#000000" fill="#351C4D"/><path d="m82.085938 16v-16c-26.5.0273438-47.976563 21.5-48 48h16c0-17.671875 14.324218-32 32-32zm0 0" data-original="#000000" class="active-path" data-old_color="#000000" fill="#351C4D"/><path d="m226.085938 400h-16c0 17.671875-14.328126 32-32 32v16c26.496093-.03125 47.96875-21.503906 48-48zm0 0" data-original="#000000" class="active-path" data-old_color="#000000" fill="#351C4D"/><path d="m210.085938 456v16c26.496093-.03125 47.96875-21.503906 48-48h-16c0 17.671875-14.328126 32-32 32zm0 0" data-original="#000000" class="active-path" data-old_color="#000000" fill="#351C4D"/></g> </svg>
